<svg width="28" height="31" viewBox="0 0 28 31" fill="none" xmlns="http://www.w3.org/2000/svg">
<path d="M5.70399 24.7994C6.59981 24.7994 7.40474 24.3166 7.40474 23.3868C7.40474 22.8911 7.17105 22.4505 6.56086 22.2853C7.01201 22.0747 7.15807 21.7021 7.15807 21.3425C7.15807 20.5552 6.45375 20.0887 5.69101 20.0887C4.89906 20.0887 4.22071 20.5876 4.22071 21.4494L4.99968 21.5045C5.00617 21.0995 5.2853 20.8533 5.70399 20.8533C6.074 20.8533 6.36611 21.0445 6.36611 21.4429C6.36611 21.7961 6.26874 22.0261 5.49627 22.0261V22.6514C6.01558 22.6514 6.61928 22.6708 6.61928 23.322C6.61928 23.8112 6.1876 24.0445 5.71697 24.0445C5.18468 24.0445 4.78546 23.7529 4.78546 23.241L4 23.2896C4 24.3037 4.79195 24.7994 5.70399 24.7994Z" fill="#161616"/>
<path d="M10.3973 22.2594V22.9235H11.4067C11.3807 23.6687 10.8744 24.0639 10.1571 24.0639C9.17364 24.0639 8.75495 23.322 8.75495 22.4116C8.75495 21.5628 9.17364 20.8015 10.1441 20.8015C10.7283 20.8015 11.2087 21.0801 11.4197 21.7021L12.15 21.3976C11.7799 20.5423 11.0529 20.0822 10.1506 20.0822C8.63486 20.0822 7.93703 21.1902 7.93703 22.444C7.93703 23.7011 8.64784 24.7994 10.1571 24.7994C10.7673 24.7994 11.2671 24.5207 11.5138 24.0898L11.5852 24.7346H12.2376V22.2594H10.3973Z" fill="#161616"/>
<path d="M12.5492 26.1277H13.2892L15.6878 20.1568H14.951L12.5492 26.1277Z" fill="#161616"/>
<path d="M18.5894 22.9106V20.1568H17.8981L15.6586 23.1827V23.659H17.778V24.7346H18.5894V23.659H19.3197V22.9106H18.5894ZM16.7134 22.9106L17.778 21.4138V22.9106H16.7134Z" fill="#161616"/>
<path d="M22.1597 22.2594V22.9235H23.1691C23.1431 23.6687 22.6368 24.0639 21.9195 24.0639C20.9361 24.0639 20.5174 23.322 20.5174 22.4116C20.5174 21.5628 20.9361 20.8015 21.9065 20.8015C22.4907 20.8015 22.9711 21.0801 23.1821 21.7021L23.9124 21.3976C23.5424 20.5423 22.8153 20.0822 21.913 20.0822C20.3973 20.0822 19.6994 21.1902 19.6994 22.444C19.6994 23.7011 20.4103 24.7994 21.9195 24.7994C22.5297 24.7994 23.0295 24.5207 23.2762 24.0898L23.3476 24.7346H24V22.2594H22.1597Z" fill="#161616"/>
<path d="M13.952 17.3945L4.47971 7.93957C5.74268 6.65264 7.18983 5.67432 8.82116 5.00459C10.4525 4.33486 12.1628 4 13.952 4C15.7543 4 17.4712 4.33486 19.1025 5.00459C20.7338 5.67432 22.1744 6.65264 23.4242 7.93957L13.952 17.3945ZM7.9134 9.12144C8.76854 8.50424 9.70603 8.02151 10.7259 7.67325C11.7452 7.32552 12.8206 7.15165 13.952 7.15165C15.0834 7.15165 16.159 7.32552 17.1788 7.67325C18.1982 8.02151 19.1354 8.50424 19.9905 9.12144L21.1351 7.97896C20.1089 7.20418 18.9875 6.60983 17.7709 6.19591C16.5537 5.78252 15.2807 5.57583 13.952 5.57583C12.6232 5.57583 11.3503 5.78252 10.1331 6.19591C8.91641 6.60983 7.795 7.20418 6.76884 7.97896L7.9134 9.12144Z" fill="#161616"/>
</svg>
