<svg width="16" height="18" viewBox="0 0 16 18" fill="none" xmlns="http://www.w3.org/2000/svg">
<path d="M1.77778 18C1.28889 18 0.870518 17.8399 0.522667 17.5197C0.174222 17.199 0 16.8136 0 16.3636V1.63636C0 1.18636 0.174222 0.801 0.522667 0.480273C0.870518 0.160091 1.28889 0 1.77778 0H8V1.63636H1.77778V2.45455H8V4.09091H1.77778V13.9091H10.6667V12.2727H12.4444V16.3636C12.4444 16.8136 12.2705 17.199 11.9227 17.5197C11.5742 17.8399 11.1556 18 10.6667 18H1.77778ZM1.77778 15.5455V16.3636H10.6667V15.5455H1.77778ZM11.5556 10.6364L7.11111 6.54545L8.35556 5.4L10.6667 7.52727V1.63636H12.4444V7.52727L14.7556 5.4L16 6.54545L11.5556 10.6364ZM1.77778 2.45455V1.63636V2.45455ZM1.77778 15.5455V16.3636V15.5455Z" fill="#161616"/>
</svg>
