<svg width="144" height="24" viewBox="0 0 144 24" fill="none" xmlns="http://www.w3.org/2000/svg">
<path d="M10.6119 8.5741L0.398438 4.60325L10.6119 0.00952148L17.8138 8.5741L14.2128 23.9903L5.89801 20.6424L3.14823 12.7785L10.6119 15.7372V8.5741Z" fill="#00C297"/>
<path d="M20.8254 8.5741L17.8138 20.6424L24.9501 15.7372L35.9493 2.65675L20.8254 8.5741Z" fill="#00C297"/>
<path d="M54.259 17.6786L59.2361 1.37169H64.5331L57.2452 22.6283H51.2016L43.9492 1.37169H49.2818L54.259 17.6786Z" fill="#161616"/>
<path d="M75.5409 22.9736C73.6448 22.9736 71.9384 22.526 70.4215 21.6307C68.9047 20.7098 67.7078 19.4181 66.8309 17.7554C65.9777 16.0927 65.5511 14.1742 65.5511 12C65.5511 9.82573 65.9895 7.90726 66.8664 6.24459C67.7671 4.58192 68.9876 3.30295 70.5282 2.40766C72.0687 1.4868 73.787 1.02637 75.6831 1.02637C77.5791 1.02637 79.2974 1.4868 80.8379 2.40766C82.3785 3.30295 83.5872 4.58192 84.4641 6.24459C85.3647 7.90726 85.815 9.82573 85.815 12C85.815 14.1742 85.3529 16.0927 84.4286 17.7554C83.5279 19.4181 82.2955 20.7098 80.7313 21.6307C79.1907 22.526 77.4606 22.9736 75.5409 22.9736ZM75.5409 18.2926C76.4415 18.2926 77.2828 18.0623 78.065 17.6019C78.8708 17.1159 79.5107 16.3997 79.9847 15.4532C80.4587 14.5068 80.6957 13.3557 80.6957 12C80.6957 9.97921 80.198 8.43164 79.2026 7.3573C78.2309 6.25738 77.034 5.70742 75.612 5.70742C74.1899 5.70742 72.993 6.25738 72.0213 7.3573C71.0733 8.43164 70.5993 9.97921 70.5993 12C70.5993 14.0208 71.0614 15.5811 71.9858 16.681C72.9338 17.7554 74.1188 18.2926 75.5409 18.2926Z" fill="#161616"/>
<path d="M97.6782 22.9736C95.7821 22.9736 94.0757 22.526 92.5589 21.6307C91.042 20.7098 89.8452 19.4181 88.9682 17.7554C88.115 16.0927 87.6884 14.1742 87.6884 12C87.6884 9.82573 88.1269 7.90726 89.0038 6.24459C89.9044 4.58192 91.125 3.30295 92.6655 2.40766C94.2061 1.4868 95.9243 1.02637 97.8204 1.02637C99.7164 1.02637 101.435 1.4868 102.975 2.40766C104.516 3.30295 105.725 4.58192 106.601 6.24459C107.502 7.90726 107.952 9.82573 107.952 12C107.952 14.1742 107.49 16.0927 106.566 17.7554C105.665 19.4181 104.433 20.7098 102.869 21.6307C101.328 22.526 99.5979 22.9736 97.6782 22.9736ZM97.6782 18.2926C98.5788 18.2926 99.4202 18.0623 100.202 17.6019C101.008 17.1159 101.648 16.3997 102.122 15.4532C102.596 14.5068 102.833 13.3557 102.833 12C102.833 9.97921 102.335 8.43164 101.34 7.3573C100.368 6.25738 99.1713 5.70742 97.7493 5.70742C96.3273 5.70742 95.1304 6.25738 94.1587 7.3573C93.2106 8.43164 92.7366 9.97921 92.7366 12C92.7366 14.0208 93.1988 15.5811 94.1231 16.681C95.0711 17.7554 96.2562 18.2926 97.6782 18.2926Z" fill="#161616"/>
<path d="M135.529 1.06474C137.946 1.06474 139.89 1.87049 141.359 3.482C142.852 5.06793 143.599 7.29335 143.599 10.1583V22.6283H138.622V10.8873C138.622 9.22461 138.231 7.95842 137.449 7.08872C136.667 6.19343 135.6 5.74579 134.249 5.74579C132.898 5.74579 131.82 6.19343 131.014 7.08872C130.232 7.95842 129.841 9.22461 129.841 10.8873V22.6283H124.864V10.8873C124.864 9.22461 124.473 7.95842 123.691 7.08872C122.908 6.19343 121.842 5.74579 120.491 5.74579C119.116 5.74579 118.026 6.19343 117.22 7.08872C116.438 7.95842 116.047 9.22461 116.047 10.8873V22.6283H111.07V1.37169H116.047V3.94244C116.687 3.04715 117.505 2.34371 118.5 1.83212C119.519 1.32053 120.633 1.06474 121.842 1.06474C123.382 1.06474 124.757 1.42285 125.966 2.13908C127.175 2.82972 128.111 3.82733 128.774 5.13188C129.414 3.90407 130.339 2.91925 131.547 2.17745C132.78 1.43564 134.107 1.06474 135.529 1.06474Z" fill="#161616"/>
</svg>
